HIERARCHY
ROOT Hips
{
 OFFSET 0.000000 0.000000 0.000000
 CHANNELS 6 Xposition Yposition Zposition Yrotation Xrotation Zrotation
 JOINT Chest
 {
  OFFSET 0.000000 9.876134 0.000104
  CHANNELS 3 Yrotation Xrotation Zrotation
  JOINT Chest2
  {
   OFFSET 0.000000 10.876135 -0.000189
   CHANNELS 3 Yrotation Xrotation Zrotation
   JOINT Chest3
   {
    OFFSET 0.000000 9.827064 0.000000
    CHANNELS 3 Yrotation Xrotation Zrotation
    JOINT Chest4
    {
     OFFSET 0.000000 9.827064 0.000000
     CHANNELS 3 Yrotation Xrotation Zrotation
     JOINT Neck
     {
      OFFSET 0.000000 13.837563 0.000000
      CHANNELS 3 Yrotation Xrotation Zrotation
      JOINT Head
      {
       OFFSET 0.000000 9.147058 -0.000450
       CHANNELS 3 Yrotation Xrotation Zrotation
       End Site
       {
        OFFSET 0.000000 17.513052 -0.000235
       }
      }
     }
     JOINT RightCollar
     {
      OFFSET -3.007720 7.720840 0.000000
      CHANNELS 3 Yrotation Xrotation Zrotation
      JOINT RightShoulder
      {
       OFFSET -14.032537 0.000000 0.000000
       CHANNELS 3 Yrotation Xrotation Zrotation
       JOINT RightElbow
       {
        OFFSET -30.066914 0.000000 0.000000
        CHANNELS 3 Yrotation Xrotation Zrotation
        JOINT RightWrist
        {
         OFFSET -24.575722 0.000000 0.000000
         CHANNELS 3 Yrotation Xrotation Zrotation
         JOINT Prop1
         {
          OFFSET -3.508164 -1.002333 -2.004665
          CHANNELS 3 Yrotation Xrotation Zrotation
          End Site
          {
           OFFSET -75.170611 -33.091209 23.052278
          }
         }
         End Site
         {
          OFFSET -18.342688 0.000000 0.000000
         }
        }
       }
      }
     }
     JOINT LeftCollar
     {
      OFFSET 3.007720 7.720840 0.000000
      CHANNELS 3 Yrotation Xrotation Zrotation
      JOINT LeftShoulder
      {
       OFFSET 14.032537 0.000000 0.000000
       CHANNELS 3 Yrotation Xrotation Zrotation
       JOINT LeftElbow
       {
        OFFSET 30.066914 0.000000 0.000000
        CHANNELS 3 Yrotation Xrotation Zrotation
        JOINT LeftWrist
        {
         OFFSET 24.575722 0.000000 0.000000
         CHANNELS 3 Yrotation Xrotation Zrotation
         End Site
         {
          OFFSET 18.342688 0.000000 0.000000
         }
        }
       }
      }
     }
    }
   }
  }
 }
 JOINT RightHip
 {
  OFFSET -8.019673 -0.000511 -0.000052
  CHANNELS 3 Yrotation Xrotation Zrotation
  JOINT RightKnee
  {
   OFFSET 0.000000 -41.754946 0.000049
   CHANNELS 3 Yrotation Xrotation Zrotation
   JOINT RightAnkle
   {
    OFFSET 0.000000 -40.737371 0.000083
    CHANNELS 3 Yrotation Xrotation Zrotation
    JOINT RightToe
    {
     OFFSET 0.000000 -6.498128 14.692921
     CHANNELS 3 Yrotation Xrotation Zrotation
     End Site
     {
      OFFSET 0.000000 -1.503206 6.410308
     }
    }
   }
  }
 }
 JOINT LeftHip
 {
  OFFSET 8.019673 -0.000511 -0.000052
  CHANNELS 3 Yrotation Xrotation Zrotation
  JOINT LeftKnee
  {
   OFFSET 0.000000 -41.754946 0.000049
   CHANNELS 3 Yrotation Xrotation Zrotation
   JOINT LeftAnkle
   {
    OFFSET 0.000000 -40.737371 0.000083
    CHANNELS 3 Yrotation Xrotation Zrotation
    JOINT LeftToe
    {
     OFFSET 0.000000 -6.498128 14.692921
     CHANNELS 3 Yrotation Xrotation Zrotation
     End Site
     {
      OFFSET 0.000000 -1.503206 6.410308
     }
    }
   }
  }
 }
}
MOTION
Frames: 8
Frame Time: 0.016667
0.000000 88.808232 0.000000 0.000000 -5.826342 0.000000 0.000000 11.116423 0.000000 0.000000 -5.290081 0.000000 0.000000 0.000000 0.000000 0.000000 0.000000 0.000000 0.000000 12.665069 0.000000 0.000000 0.575450 0.000000 0.000000 0.000000 0.000000 0.000000 0.000000 0.000000 2.337306 0.000000 0.000000 -2.337306 0.000000 0.000000 0.000000 0.000000 0.000000 0.000000 0.000000 0.000000 0.000000 0.000000 0.000000 -2.337306 0.000000 0.000000 2.337306 0.000000 0.000000 0.000000 8.578828 0.000000 0.000000 1.905768 0.000000 0.000000 -4.658254 0.000000 0.000000 0.000000 0.000000 0.000000 8.578828 0.000000 0.000000 1.905768 0.000000 0.000000 -4.658254 0.000000 0.000000 0.000000 0.000000
-18.904889 79.042719 25.978333 -154.037599 -5.832719 4.119644 -4.185246 9.475494 -1.332614 -1.829287 4.217764 -0.501650 -1.829287 4.217764 -0.501650 -1.367878 3.164860 -0.363426 -13.061050 12.719253 5.081833 -26.727762 -10.188578 14.737548 13.815724 1.906974 4.904966 -33.064924 -45.380000 86.036441 37.320156 -7.701039 -3.422691 -10.071888 7.332925 -17.057339 -6.732027 15.852258 -87.892661 15.388166 -6.440071 -9.792170 2.425261 13.379348 -69.283708 -22.876768 15.350185 0.493253 -1.096094 -2.539763 3.251543 -13.942095 -42.551408 -18.450976 -33.881567 45.464492 -28.385838 21.069619 -2.361772 -1.228138 0.001920 0.033689 0.013776 -20.038211 -6.883188 20.102903 15.241898 54.536548 -15.941072 21.530777 -24.930099 -10.987757 -0.008980 0.014176 -0.030061
-18.894528 79.048226 25.973316 -154.052775 -5.884445 4.129886 -4.191287 9.500930 -1.322245 -1.830990 4.230782 -0.498472 -1.830990 4.230782 -0.498472 -1.369162 3.174615 -0.360992 -13.083049 12.677586 5.075708 -26.776883 -10.260345 14.745331 13.824608 1.910189 4.893992 -33.083528 -45.428895 86.025956 37.286882 -7.633512 -3.413253 -10.089203 7.338567 -17.050395 -6.736103 15.849816 -87.900061 15.385199 -6.449008 -9.826527 2.408612 13.372495 -69.274108 -22.789264 15.324100 0.522699 -1.092652 -2.544817 3.251438 -13.949729 -42.492470 -18.454108 -33.864675 45.444507 -28.380038 21.120081 -2.371648 -1.236564 0.003439 0.036947 0.013307 -19.991947 -6.847923 20.075978 15.241024 54.536490 -15.903195 21.510080 -24.912587 -10.995260 -0.011665 0.006710 -0.025844
-18.876846 79.054853 25.962633 -154.073063 -5.958073 4.133000 -4.196994 9.539629 -1.308617 -1.833012 4.248896 -0.494312 -1.833012 4.248896 -0.494312 -1.370687 3.188190 -0.357804 -13.102063 12.633377 5.069209 -26.820951 -10.337561 14.752106 13.841756 1.930080 4.874855 -33.093389 -45.490037 86.017639 37.232459 -7.501576 -3.425845 -10.111472 7.297710 -17.027439 -6.717830 15.807856 -87.896200 15.398210 -6.464396 -9.868042 2.365319 13.391760 -69.239179 -22.731441 15.243662 0.531860 -1.091756 -2.537954 3.244686 -13.974188 -42.406326 -18.439188 -33.814663 45.423270 -28.359418 21.107266 -2.371925 -1.239340 0.003208 0.034514 0.012094 -19.956941 -6.783814 20.049409 15.268175 54.536867 -15.854720 21.591337 -24.859113 -11.058646 -0.008099 -0.006403 -0.016491
-18.875299 79.060576 25.963832 -154.082244 -6.001944 4.140898 -4.202790 9.561986 -1.304675 -1.835986 4.259335 -0.489727 -1.835986 4.259335 -0.489727 -1.372937 3.196008 -0.354313 -13.121036 12.599633 5.058865 -26.860956 -10.396870 14.748878 13.849867 1.957884 4.864722 -33.071988 -45.547161 85.969218 37.178556 -7.377924 -3.445456 -10.129271 7.234822 -17.001274 -6.696472 15.777125 -87.874111 15.410957 -6.469525 -9.891297 2.353900 13.408266 -69.221601 -22.711866 15.171635 0.549509 -1.080644 -2.530056 3.221016 -13.982424 -42.355807 -18.434221 -33.773250 45.416612 -28.338458 21.138716 -2.381436 -1.249631 0.006298 0.034919 0.012862 -19.956150 -6.730956 20.022286 15.290330 54.520670 -15.828728 21.477522 -24.887445 -11.010635 -0.019611 0.001750 -0.021340
-18.862966 79.061295 25.957143 -154.088537 -5.996407 4.141194 -4.204060 9.567631 -1.297277 -1.838136 4.260275 -0.487182 -1.838136 4.260275 -0.487182 -1.374565 3.196707 -0.352387 -13.135839 12.576857 5.052991 -26.892113 -10.436091 14.749474 13.845857 1.927658 4.865314 -33.026183 -45.548851 85.887110 37.159255 -7.367264 -3.438694 -10.141784 7.256419 -17.018275 -6.695459 15.783407 -87.875214 15.415017 -6.483128 -9.900768 2.395457 13.400979 -69.235422 -22.696391 15.131761 0.580613 -1.071141 -2.517193 3.220517 -13.994259 -42.360979 -18.409361 -33.753096 45.417429 -28.336731 21.033496 -2.369143 -1.245134 0.004956 0.024883 0.009205 -19.966090 -6.731134 20.015243 15.320273 54.516004 -15.802085 21.540400 -24.867540 -11.051247 -0.011254 0.002910 -0.013330
-18.860963 79.058101 25.961272 -154.091078 -5.957515 4.149413 -4.212536 9.555532 -1.295471 -1.841793 4.253607 -0.484583 -1.841793 4.253607 -0.484583 -1.377332 3.191702 -0.350434 -13.145135 12.566346 5.044794 -26.909071 -10.455096 14.740433 13.848913 1.932965 4.854942 -33.051182 -45.552981 85.902162 37.181961 -7.357969 -3.436630 -10.160003 7.314421 -17.049896 -6.699924 15.802302 -87.899600 15.426558 -6.482919 -9.913544 2.452410 13.373989 -69.240261 -22.688371 15.129613 0.599393 -1.068585 -2.509912 3.246322 -14.000212 -42.400778 -18.393846 -33.743311 45.420265 -28.335920 20.852396 -2.348625 -1.237481 0.003460 0.015531 0.006433 -19.952450 -6.768246 20.015355 15.330849 54.507439 -15.770863 21.539845 -24.864835 -11.062038 -0.015056 0.009641 -0.013876
-18.855770 79.051753 25.962030 -154.090683 -5.909495 4.158046 -4.216005 9.539379 -1.293187 -1.844095 4.244978 -0.483375 -1.844095 4.244978 -0.483375 -1.379076 3.185228 -0.349539 -13.152896 12.567512 5.035781 -26.919955 -10.453540 14.726113 13.852087 1.925426 4.850113 -33.028779 -45.546553 85.904274 37.216070 -7.324089 -3.500546 -10.193323 7.336548 -17.051907 -6.687543 15.820776 -87.950037 15.426036 -6.486376 -9.927557 2.482371 13.362825 -69.208271 -22.694887 15.124905 0.594981 -1.071318 -2.510422 3.299351 -13.999397 -42.457567 -18.389799 -33.748817 45.433920 -28.338585 20.976987 -2.380110 -1.256534 0.004257 0.031043 0.008455 -19.973684 -6.814100 20.022493 15.318081 54.508560 -15.795234 21.568665 -24.873209 -11.064162 -0.012634 0.015712 -0.013626
